#!OML:ASF E:\Steps\Project 1\Capture day 1\Session 2\Subject.ASF
:FULLY-SPECIFIED
:DEGREES
304
root 9.60606 12.9781 21.3705 -144.648 -4.61055 -181.168
lowerback -3.36892 0.743634 -5.35636
upperback -1.76331 1.01674 -2.23596
thorax 0.0160853 0.47284 0.736031
lowerneck 3.71241 1.73922 -5.27092
upperneck -27.9855 1.26433 7.64999
head -9.47145 -0.731237 3.65655
rclavicle -1.09332e-014 -1.47101e-014
rhumerus -10.9532 19.3691 -75.7195
rradius 68.823
rwrist -7.72837
rhand -9.26873 -47.8997
rfingers 7.12502
rthumb 16.6877 -77.2024
lclavicle -1.09332e-014 -1.47101e-014
lhumerus -19.0288 -39.7658 64.9007
lradius 68.2657
lwrist 1.82459
lhand -30.0693 -20.5639
lfingers 7.12502
lthumb -3.3844 9.38902
rfemur -77.3429 2.91623 22.2179
rtibia 83.2654
rfoot -44.845 -14.9408
rtoes -30.4103
lfemur -79.8605 -6.12694 -17.4979
ltibia 84.9622
lfoot -29.6247 -4.07085
ltoes -10.066
305
root 9.60174 13.1925 21.2958 -145.098 -5.33873 -181.182
lowerback -3.65352 0.863159 -5.25523
upperback -2.35403 1.14059 -2.17941
thorax -0.439825 0.541589 0.740001
lowerneck 4.50423 1.75112 -5.74461
upperneck -28.1342 1.3635 8.04541
head -9.68781 -0.65277 3.88034
rclavicle 1.07344e-014 -5.88403e-014
rhumerus -10.7851 20.8521 -73.5405
rradius 71.8954
rwrist -7.85201
rhand -9.27823 -47.3569
rfingers 7.12502
rthumb 16.6786 -76.6604
lclavicle 1.07344e-014 -5.88403e-014
lhumerus -19.3335 -41.3363 63.7622
lradius 70.4913
lwrist 1.44519
lhand -30.1168 -20.6206
lfingers 7.12502
lthumb -3.43027 9.33153
rfemur -75.1656 2.30251 22.5634
rtibia 80.9286
rfoot -43.385 -14.9756
rtoes -30.5914
lfemur -77.9318 -6.2999 -17.4278
ltibia 82.806
lfoot -28.0152 -4.2507
ltoes -7.14278
306
root 9.5985 13.4312 21.2159 -145.701 -6.18004 -181.158
lowerback -4.59438 0.913544 -5.13486
upperback -2.40218 1.26445 -2.04663
thorax 0.0296605 0.592202 0.829002
lowerneck 5.10573 1.81314 -6.28275
upperneck -28.2254 1.51506 8.43285
head -9.85462 -0.545986 4.10612
rclavicle -1.09332e-014 4.37326e-014
rhumerus -9.59451 22.1819 -70.9479
rradius 74.1992
rwrist -8.19574
rhand -9.52444 -47.3024
rfingers 7.12502
rthumb 16.4416 -76.6256
lclavicle -1.09332e-014 4.37326e-014
lhumerus -18.8453 -42.3609 62.214
lradius 72.3854
lwrist 0.525266
lhand -30.4926 -20.6581
lfingers 7.12502
lthumb -3.79312 9.28791
rfemur -72.7226 1.68374 22.863
rtibia 78.3418
rfoot -41.7848 -14.9364
rtoes -30.9657
lfemur -75.7289 -6.45367 -17.3638
ltibia 80.447
lfoot -26.2076 -3.44295
ltoes -8.70399
307
root 9.59922 13.6811 21.1317 -145.974 -6.86029 -180.978
lowerback -5.91177 1.04124 -5.01499
upperback -2.65961 1.48457 -1.91401
thorax 0.485699 0.685782 0.931175
lowerneck 5.83385 1.86354 -6.81763
upperneck -28.2943 1.65139 8.81919
head -10.0391 -0.442238 4.33277
rclavicle 1.17283e-014 -1.86858e-014
rhumerus -8.67632 23.3961 -68.3574
rradius 76.1672
rwrist -8.31478
rhand -10.1166 -47.5137
rfingers 7.12502
rthumb 15.8713 -76.8832
lclavicle 1.17283e-014 -1.86858e-014
lhumerus -18.5486 -43.2543 61.0188
lradius 73.8331
lwrist -0.775908
lhand -30.6069 -21.7207
lfingers 7.12502
lthumb -3.90352 8.22326
rfemur -70.6656 1.36668 23.1677
rtibia 75.772
rfoot -39.9704 -14.7827
rtoes -31.6155
lfemur -73.8888 -6.29112 -17.1672
ltibia 77.9536
lfoot -24.2166 -2.63455
ltoes -10.1974
308
root 9.60014 13.9569 21.0348 -146.453 -7.54538 -180.901
lowerback -7.00212 1.17631 -4.93649
upperback -2.83303 1.7023 -1.87034
thorax 0.901179 0.777696 0.96751
lowerneck 6.36668 1.87927 -7.3224
upperneck -28.2939 1.72744 9.18015
head -10.156 -0.367594 4.54715
rclavicle -2.78299e-015 2.06736e-014
rhumerus -8.09519 24.3408 -65.9651
rradius 77.9708
rwrist -8.51614
rhand -8.85548 -48.1714
rfingers 7.12502
rthumb 17.0856 -77.4401
lclavicle -2.78299e-015 2.06736e-014
lhumerus -18.0218 -43.9066 59.8277
lradius 74.8897
lwrist -1.9254
lhand -30.4013 -23.0986
lfingers 7.12502
lthumb -3.70497 6.84894
rfemur -68.1411 0.917778 23.3808
rtibia 72.9199
rfoot -37.9159 -14.483
rtoes -32.5071
lfemur -71.5097 -6.26005 -16.9993
ltibia 74.9449
lfoot -21.8564 -2.85154
ltoes -10.1687
309
root 9.59752 14.258 20.9302 -146.947 -8.42735 -181.041
lowerback -8.06289 1.30699 -4.94031
upperback -3.06531 1.90287 -1.97169
thorax 1.23982 0.857196 0.902575
lowerneck 7.06114 1.85637 -7.72719
upperneck -28.3091 1.76497 9.54005
head -10.3064 -0.318757 4.75002
rclavicle -3.47873e-015 -4.49253e-014
rhumerus -8.19801 25.0622 -64.1281
rradius 79.3974
rwrist -9.57164
rhand -8.50779 -46.9332
rfingers 7.12502
rthumb 17.4202 -76.1727
lclavicle -3.47873e-015 -4.49253e-014
lhumerus -17.5686 -44.5492 58.9041
lradius 75.567
lwrist -3.21725
lhand -29.6144 -24.4776
lfingers 7.12502
lthumb -2.94507 5.48181
rfemur -65.401 0.130587 23.3739
rtibia 69.732
rfoot -35.5573 -13.7277
rtoes -31.893
lfemur -68.9154 -6.45041 -17.0094
ltibia 71.7078
lfoot -19.4298 -3.02039
ltoes -12.5057
310
root 9.59053 14.5846 20.8184 -147.434 -9.32213 -181.152
lowerback -9.20729 1.36094 -5.00428
upperback -3.19474 2.02231 -1.93609
thorax 1.72644 0.895785 1.01292
lowerneck 7.5756 1.88127 -8.33295
upperneck -28.2657 1.83197 9.91974
head -10.4065 -0.239364 4.99019
rclavicle -2.48481e-015 1.78906e-014
rhumerus -8.22896 25.8451 -62.4428
rradius 80.2949
rwrist -10.9367
rhand -10.0269 -44.0894
rfingers 7.12502
rthumb 15.9578 -73.4521
lclavicle -2.48481e-015 1.78906e-014
lhumerus -17.2779 -44.6037 58.5778
lradius 75.895
lwrist -4.53456
lhand -28.7483 -25.4842
lfingers 7.12502
lthumb -2.10859 4.48513
rfemur -62.5003 -0.665181 23.2991
rtibia 66.1904
rfoot -32.7761 -13.0131
rtoes -31.4629
lfemur -66.1247 -6.48062 -17.0761
ltibia 68.0343
lfoot -16.5024 -2.88522
ltoes -16.0356
311
root 9.58482 14.9384 20.7004 -147.876 -10.2368 -181.188
lowerback -10.4619 1.45326 -5.12335
upperback -3.33468 2.20135 -1.88783
thorax 2.25338 0.960623 1.17995
lowerneck 8.08675 1.90846 -8.9184
upperneck -28.2352 1.90254 10.3192
head -10.5122 -0.164803 5.236
rclavicle 4.96962e-016 1.90833e-014
rhumerus -8.87895 26.0738 -61.3627
rradius 81.0021
rwrist -11.8057
rhand -8.74183 -47.5807
rfingers 7.12502
rthumb 17.1949 -76.8399
lclavicle 4.96962e-016 1.90833e-014
lhumerus -17.0893 -44.6141 58.6956
lradius 75.9771
lwrist -5.35948
lhand -28.2084 -25.9374
lfingers 7.12502
lthumb -1.58721 4.03641
rfemur -59.4843 -1.36705 23.272
rtibia 62.2338
rfoot -29.6076 -12.6802
rtoes -32.1384
lfemur -63.2187 -6.35885 -17.0475
ltibia 63.9306
lfoot -12.8736 -2.63166
ltoes -19.5634
312
root 9.57734 15.3245 20.5843 -148.132 -11.3294 -181.239
lowerback -11.7542 1.55302 -5.29709
upperback -3.57308 2.38422 -1.86266
thorax 2.69133 1.02385 1.35863
lowerneck 8.59548 1.90471 -9.35338
upperneck -28.1969 1.94488 10.6942
head -10.6099 -0.117276 5.44953
rclavicle -1.78906e-015 -1.07344e-014
rhumerus -10.1666 25.8794 -60.9663
rradius 81.2331
rwrist -11.7921
rhand -8.48773 -44.7028
rfingers 7.12502
rthumb 17.4395 -73.9405
lclavicle -1.78906e-015 -1.07344e-014
lhumerus -17.0768 -44.5804 59.2995
lradius 75.7539
lwrist -5.64736
lhand -28.0323 -26.0368
lfingers 7.12502
lthumb -1.41712 3.93825
rfemur -56.5216 -2.09574 23.2327
rtibia 57.6943
rfoot -25.6471 -11.8477
rtoes -31.5636
lfemur -60.5191 -6.26455 -16.9565
ltibia 59.6934
lfoot -8.94992 -2.58137
ltoes -23.9572
313
root 9.55948 15.7405 20.4713 -148.073 -12.4533 -181.175
lowerback -13.3253 1.64203 -5.23219
upperback -3.84358 2.53163 -1.84527
thorax 3.25543 1.0605 1.40401
lowerneck 9.00551 1.87694 -9.67585
upperneck -28.0976 1.94899 10.9819
head -10.6591 -0.0899434 5.61041
rclavicle 3.40916e-014 -3.20043e-014
rhumerus -11.3926 25.8166 -60.9631
rradius 80.6935
rwrist -11.3846
rhand -7.35782 -46.1403
rfingers 7.12502
rthumb 18.5267 -75.278
lclavicle 3.40916e-014 -3.20043e-014
lhumerus -17.1979 -44.1686 60.2799
lradius 75.2388
lwrist -5.41953
lhand -27.9487 -26.1888
lfingers 7.12502
lthumb -1.3364 3.78674
rfemur -53.776 -2.65909 23.2021
rtibia 52.4311
rfoot -20.5371 -11.6499
rtoes -34.3006
lfemur -58.0104 -6.01162 -16.755
ltibia 54.8545
lfoot -4.56841 -2.77892
ltoes -27.174
314
root 9.53849 16.166 20.3347 -148.167 -13.7139 -181.059
lowerback -15.1642 1.66194 -5.02181
upperback -3.90556 2.60277 -1.85861
thorax 4.19208 1.05175 1.33942
lowerneck 9.36771 1.84313 -9.88182
upperneck -27.9613 1.94352 11.1855
head -10.6818 -0.0707873 5.71731
rclavicle 1.98785e-015 -5.96354e-016
rhumerus -12.5205 25.8407 -61.4289
rradius 79.6197
rwrist -11.483
rhand -8.85134 -44.2908
rfingers 7.12502
rthumb 17.0895 -73.5591
lclavicle 1.98785e-015 -5.96354e-016
lhumerus -17.3045 -43.4269 61.4774
lradius 74.3492
lwrist -4.9594
lhand -27.6965 -26.2625
lfingers 7.12502
lthumb -1.09275 3.71449
rfemur -50.4693 -3.00721 23.0898
rtibia 46.5818
rfoot -14.8034 -11.347
rtoes -36.5908
lfemur -54.8961 -5.80064 -16.4239
ltibia 48.9965
lfoot 0.739884 -2.99687
ltoes -27.7709
315
root 9.52169 16.5783 20.1575 -148.72 -15.3361 -181.054
lowerback -17.0766 1.49899 -5.09465
upperback -3.70156 2.51059 -1.75991
thorax 5.43734 0.96042 1.52705
lowerneck 9.77598 1.81616 -10.0707
upperneck -27.8109 1.94451 11.3725
head -10.7093 -0.0486463 5.81405
rclavicle -1.09332e-015 -1.11319e-014
rhumerus -13.7148 25.7587 -62.2562
rradius 78.1035
rwrist -11.3079
rhand -3.74939 -50.6686
rfingers 7.12502
rthumb 21.9946 -79.4381
lclavicle -1.09332e-015 -1.11319e-014
lhumerus -17.6542 -42.4272 63.1534
lradius 73.2056
lwrist -4.54823
lhand -27.344 -26.1064
lfingers 7.12502
lthumb -0.75234 3.87202
rfemur -46.0199 -3.2573 22.7722
rtibia 39.9827
rfoot -8.61162 -10.9136
rtoes -38.0227
lfemur -50.8369 -6.00551 -16.0316
ltibia 42.1868
lfoot 7.00814 -2.90826
ltoes -26.6032
